<?xml version="1.0" encoding="UTF-8"?>
<svg id="LAYER_1" data-name="LAYER 1" xmlns="http://www.w3.org/2000/svg" viewBox="0 0 71.18 129.95">
  <defs>
    <style>
      .cls-1 {
        fill: #231f20;
      }

      .cls-2 {
        fill: #c59b6c;
      }
    </style>
  </defs>
  <path class="cls-2" d="M9.98,75.45v-34.6s-.23-11.8,2.61-15.27c3.53-4.32,22.99-15.81,22.99-15.81,0,0,19.81,11.6,23.34,15.92,2.84,3.48,2.27,15.16,2.27,15.16v34.6M61.2,75.45v28.43h9.98v-63.02c0-24.54-13.63-28.99-35.59-40.85C13.63,11.86,0,16.31,0,40.85v63.03h9.98v-28.43"/>
  <path class="cls-2" d="M47.39,73.34h-23.67v-23.67h23.67v23.67ZM35.61,44.77l-16.74,16.74,16.74,16.74,16.74-16.74-16.74-16.74Z"/>
  <g>
    <path class="cls-1" d="M13.47,116.2c-.73.03-1.32-.21-1.77-.7-.14-.15-.3-.41-.49-.77-.13-.25-.26-.39-.4-.4-.18-.01-.42.11-.73.38-.3.27-.51.52-.63.78-.2.49-.39.98-.59,1.46-.21.46-.47.68-.77.68-.36,0-.69-.24-.98-.72-.3-.51-.45-1.14-.45-1.89,0-.3.04-.7.13-1.2.03-.19.08-.28.13-.28.06,0,.08.11.08.32,0,.17-.02.37-.03.58,0,.16-.01.3-.01.4,0,.42.08.84.23,1.24.19.52.44.78.75.78.27,0,.5-.16.67-.48.16-.38.32-.76.47-1.14.23-.55.51-.99.84-1.34.36-.39.71-.58,1.05-.58.17,0,.35.15.53.45.29.48.46.74.49.78.39.45.88.68,1.48.68v.96ZM9.81,110.7c0,.11-.03.25-.08.41-.07.19-.15.29-.23.29-.04,0-.21-.09-.5-.27-.31-.19-.47-.32-.47-.4s.11-.35.33-.84c.13.13.35.29.65.46.2.11.3.23.3.34ZM11.19,110.3c0,.07-.03.19-.09.37-.08.21-.16.37-.24.46-.18-.1-.36-.19-.54-.29-.25-.14-.38-.25-.38-.32,0-.03.05-.16.14-.39.1-.23.16-.35.21-.35.6.25.9.43.9.53Z"/>
    <path class="cls-1" d="M19.09,116.2c-.49,0-1.11-.27-1.85-.82-.04.19-.11.38-.22.58-.13.23-.25.35-.37.36-.11.01-.32-.07-.64-.25-.41-.23-.76-.53-1.05-.9-.15.21-.36.43-.62.64-.34.26-.63.4-.87.4v-.96c.38,0,.69-.06.93-.18s.48-.35.75-.69c.05.03.11.01.16-.05.35-.43.67-.64.97-.64.26,0,.45.07.59.21.14.14.28.29.42.43.77.61,1.37.91,1.8.91v.96ZM16.65,115.29c-.02-.24-.11-.43-.27-.58-.13-.13-.28-.2-.43-.2-.08.01-.19.06-.35.13.28.23.63.45,1.05.65Z"/>
    <path class="cls-1" d="M33.22,116.2c-.16,0-.33-.05-.49-.15-.22-.14-.35-.34-.37-.59s0-.47.04-.65c-.16.07-.33.11-.51.12-.07,0-1.51.22-4.31.65-2.74.42-4.88.63-6.42.63h-2.06v-.96h2.07c1.47,0,3.59-.18,6.34-.54,2.83-.37,4.25-.56,4.27-.56.26,0,.46-.02.62-.05-.43-.87-1.41-1.3-2.93-1.3-.46,0-1.65.1-3.56.29s-3.22.29-3.9.29c-1.66,0-2.49-.29-2.49-.88,0-.06,0-.12.03-.18.17-.61.43-1.12.79-1.54.29-.34.74-.73,1.37-1.17,1.45-1.03,2.53-1.55,3.22-1.55.38,0,.57.12.57.38,0,.13-.08.36-.24.68-.07.15-.12.22-.14.22-.05,0-.1-.08-.15-.24-.05-.18-.2-.26-.44-.25-.13.02-.45.15-.96.39-.57.27-1.05.54-1.44.81-1.36.94-2.04,1.58-2.05,1.92,0,.15.19.28.59.39.49.13,1.17.2,2.04.19.39,0,1.49-.1,3.3-.28,1.79-.18,2.94-.27,3.45-.27,1.06,0,1.82.09,2.28.26.55.21.97.62,1.27,1.23.02.05.03.11.03.18,0,.32-.15.64-.44.96,0,.02.01.09.01.19s.06.21.18.31c.09.07.22.1.41.1v.96Z"/>
    <path class="cls-1" d="M40.57,113.18c.06,0,.1.05.1.14,0,.17-.08.42-.24.76-.75.04-1.23.08-1.42.1-.6.08-1.19.25-1.77.51-2.33,1.02-3.67,1.52-4.02,1.5v-.96c.39,0,1.1-.2,2.13-.61,1.13-.45,1.76-.69,1.89-.71-.34-.04-1-.12-2-.24-.27-.04-.54-.08-.8-.12-.37-.05-.74-.08-1.09-.08-.01,0-.02,0-.03,0-.04,0-.06-.04-.06-.11,0-.12.05-.3.15-.52.1-.23.17-.34.22-.34.32-.06.72-.17,1.19-.31.53-.16.86-.29.98-.39.03-.05.05-.15.05-.3,0-.43-.15-1.34-.44-2.73-.2-.9-.39-1.8-.59-2.71-.04,0-.13-.06-.26-.21-.01-.02-.02-.05-.02-.09,0,.03.06-.18.17-.63,0-.02.01-.04.02-.05.03-.05.09-.03.16.06.06.08.25.25.58.53.26.22.39.37.39.44,0,.04-.02.06-.06.08-.09-.01-.24-.05-.46-.11.16.59.35,1.42.56,2.5.26,1.33.38,2.23.36,2.69-.02.59-.22,1.06-.58,1.41.18.01.78.09,1.8.23.88.12,1.92.21,3.1.25Z"/>
    <path class="cls-1" d="M43.07,113.98c.02.23.03.45.03.66,0,.76-.09,1.3-.27,1.63-.07.13-.12.19-.15.19-.05,0-.06-.15-.02-.44.05-.37.05-.75,0-1.16-.16-1.3-.39-3.26-.68-5.88-.04-.48-.1-1.17-.18-2.07-.01-.05-.08-.18-.18-.4-.03-.05.05-.34.22-.87,0-.03.02-.05.04-.05.05,0,.11.1.19.29.14.3.28.6.42.9.22.46.33.75.33.87,0,.04-.01.05-.04.05-.02,0-.05-.01-.09-.04-.11-.09-.23-.2-.36-.33,0,.13.08.97.28,2.52.24,1.85.39,3.21.47,4.11Z"/>
    <path class="cls-1" d="M52.12,116.2c-.73.03-1.32-.21-1.77-.7-.14-.15-.3-.41-.49-.77-.13-.25-.26-.39-.4-.4-.18-.01-.42.11-.73.38-.3.27-.51.52-.63.78-.2.49-.39.98-.59,1.46-.21.46-.47.68-.77.68-.36,0-.69-.24-.98-.72-.3-.51-.45-1.14-.45-1.89,0-.3.04-.7.13-1.2.03-.19.08-.28.13-.28.06,0,.08.11.08.32,0,.17-.02.37-.03.58,0,.16-.01.3-.01.4,0,.42.08.84.23,1.24.19.52.44.78.75.78.27,0,.5-.16.67-.48.16-.38.32-.76.47-1.14.23-.55.51-.99.84-1.34.36-.39.71-.58,1.05-.58.17,0,.35.15.53.45.29.48.46.74.49.78.39.45.88.68,1.48.68v.96ZM48.46,110.7c0,.11-.03.25-.08.41-.07.19-.15.29-.23.29-.04,0-.21-.09-.5-.27-.31-.19-.47-.32-.47-.4s.11-.35.33-.84c.13.13.35.29.65.46.2.11.3.23.3.34ZM49.84,110.3c0,.07-.03.19-.09.37-.08.21-.16.37-.24.46-.18-.1-.36-.19-.54-.29-.25-.14-.38-.25-.38-.32,0-.03.05-.16.14-.39.1-.23.16-.35.21-.35.6.25.9.43.9.53Z"/>
    <path class="cls-1" d="M54.25,113.97c.06.48-.1.94-.48,1.39-.15.18-.39.36-.69.53-.36.21-.69.31-.96.31v-.96c.41,0,.84-.12,1.28-.36.4-.22.58-.37.54-.46-.06-.16-.31-.49-.75-.99-.41-.48-.7-.96-.86-1.44-.1,0-.14-.03-.14-.08.02-.17.05-.4.08-.7.03-.14.08-.18.14-.12.23.16.51.36.83.61.11.1.17.17.17.23,0,.05-.04.07-.12.07-.13,0-.24,0-.33-.03.04.12.26.42.66.88.36.42.57.8.62,1.12ZM54.06,118.08c0,.3-.09.57-.28.81-.26-.14-.53-.28-.8-.42-.13-.07-.2-.15-.2-.23,0,.03.08-.25.25-.85.12.1.34.23.68.39.24.11.36.21.36.3Z"/>
    <path class="cls-1" d="M56.9,113.98c.02.23.03.45.03.66,0,.76-.09,1.3-.27,1.63-.07.13-.12.19-.15.19-.05,0-.06-.15-.02-.44.05-.37.05-.75,0-1.16-.16-1.3-.39-3.26-.68-5.88-.04-.48-.1-1.17-.18-2.07-.01-.05-.08-.18-.18-.4-.03-.05.05-.34.22-.87,0-.03.02-.05.04-.05.05,0,.11.1.19.29.14.3.28.6.42.9.22.46.33.75.33.87,0,.04-.01.05-.04.05-.02,0-.05-.01-.09-.04-.11-.09-.23-.2-.36-.33,0,.13.08.97.28,2.52.24,1.85.39,3.21.47,4.11Z"/>
    <path class="cls-1" d="M62.42,116.2c-.1,0-.21.01-.32.01,0,.05-.03.16-.06.31-.09.49-.29.9-.59,1.24-.62.56-1.33,1.11-2.15,1.65-.74.48-1.35.82-1.83,1.01-1,.15-1.89.36-2.68.66-.16.06-.3.09-.4.09-.06,0-.1-.01-.1-.04,0-.06.13-.14.38-.25.77-.33,1.56-.71,2.39-1.13,1.01-.51,2.06-1.14,3.15-1.89,1.06-.73,1.6-1.18,1.61-1.35-.02-.11-.05-.21-.1-.29-.87,0-1.41-.05-1.62-.14-.12-.05-.23-.14-.33-.27-.12-.15-.18-.29-.18-.42,0-.38.13-.74.36-1.08.24-.34.48-.51.74-.51.18,0,.42.15.71.45.31.31.51.65.62,1,.15,0,.29,0,.4,0v.96ZM61.06,115.23c-.04-.05-.09-.12-.15-.21-.09-.14-.21-.21-.37-.22-.11,0-.2.02-.27.07-.07.05-.1.13-.1.24.07.06.37.1.88.12Z"/>
    <path class="cls-1" d="M64.55,113.97c.06.48-.1.94-.48,1.39-.15.18-.38.36-.69.53-.36.21-.69.31-.96.31v-.96c.41,0,.84-.12,1.28-.36.4-.22.58-.37.54-.46-.06-.16-.31-.49-.75-.99-.41-.48-.7-.96-.86-1.44-.1,0-.14-.03-.14-.08.02-.17.05-.4.08-.7.03-.14.08-.18.14-.12.23.16.51.36.83.61.11.1.17.17.17.23,0,.05-.04.07-.12.07-.13,0-.24,0-.33-.03.04.12.26.42.66.88.37.42.57.8.62,1.12ZM64.35,118.08c0,.3-.09.57-.28.81-.26-.14-.53-.28-.8-.42-.13-.07-.2-.15-.2-.23,0,.03.08-.25.25-.85.12.1.34.23.68.39.24.11.36.21.36.3Z"/>
  </g>
  <g>
    <path class="cls-1" d="M8.08,124.77v.24c0,1.66-1.17,2.93-2.85,2.93s-3.05-1.46-3.05-3.13,1.39-3.16,3.13-3.16c.94,0,1.86.42,2.46,1.17l-.53.5c-.43-.59-1.16-.98-1.9-.98-1.35,0-2.41,1.09-2.41,2.45,0,1.26,1.04,2.46,2.34,2.46.94,0,1.94-.81,1.98-1.79h-1.56v-.69h2.39Z"/>
    <path class="cls-1" d="M9.68,126.29l-.69,1.51h-.81l2.88-6.28,2.88,6.28h-.81l-.69-1.51h-2.77ZM11.07,123.17l-1.07,2.44h2.14l-1.07-2.44Z"/>
    <path class="cls-1" d="M15.43,127.81h-.75v-5.34h-1.43v-.69h3.61v.69h-1.43v5.34Z"/>
    <path class="cls-1" d="M17.46,121.78h3.24v.69h-2.49v1.69h2.42v.69h-2.42v2.28h2.49v.69h-3.24v-6.03Z"/>
    <path class="cls-1" d="M29.83,124.79c0,1.79-1.42,3.14-3.16,3.14s-3.16-1.35-3.16-3.14,1.43-3.14,3.16-3.14,3.16,1.42,3.16,3.14ZM29.08,124.79c0-1.33-.99-2.44-2.41-2.44s-2.41,1.11-2.41,2.44,1.1,2.44,2.41,2.44,2.41-1.06,2.41-2.44Z"/>
    <path class="cls-1" d="M31.31,122.46v1.69h2.09v.69h-2.09v2.96h-.75v-6.03h2.92v.69h-2.17Z"/>
    <path class="cls-1" d="M38.5,126.09l1.7-4.45,1.7,4.45,1.69-4.32h.82l-2.5,6.27-1.7-4.42-1.7,4.42-2.5-6.27h.82l1.69,4.32Z"/>
    <path class="cls-1" d="M45.61,127.81h-.75v-6.03h.75v6.03Z"/>
    <path class="cls-1" d="M49.42,122.92c-.22-.38-.51-.57-.97-.57-.48,0-1.01.33-1.01.86,0,.47.46.72.84.86l.43.17c.86.34,1.5.81,1.5,1.82,0,1.1-.85,1.88-1.93,1.88-.98,0-1.73-.72-1.86-1.69l.76-.16c0,.66.52,1.14,1.17,1.14s1.11-.54,1.11-1.17-.52-.93-1.04-1.14l-.42-.18c-.69-.3-1.31-.69-1.31-1.53,0-.98.86-1.56,1.77-1.56.67,0,1.22.33,1.55.91l-.6.36Z"/>
    <path class="cls-1" d="M50.97,121.78h1.25c1.85,0,3.38.98,3.38,2.98s-1.5,3.05-3.41,3.05h-1.22v-6.03ZM51.72,127.12h.26c1.54,0,2.86-.58,2.86-2.33s-1.33-2.33-2.86-2.33h-.26v4.65Z"/>
    <path class="cls-1" d="M62.25,124.79c0,1.79-1.42,3.14-3.16,3.14s-3.16-1.35-3.16-3.14,1.43-3.14,3.16-3.14,3.16,1.42,3.16,3.14ZM61.5,124.79c0-1.33-.99-2.44-2.41-2.44s-2.41,1.11-2.41,2.44,1.1,2.44,2.41,2.44,2.41-1.06,2.41-2.44Z"/>
    <path class="cls-1" d="M64,123.82h-.02l-.7,3.98h-.78l1.23-6.28,2.07,4.75,2.07-4.75,1.23,6.28h-.78l-.7-3.98h-.02l-1.81,4.11-1.81-4.11Z"/>
  </g>
</svg>