<?xml version="1.0" encoding="UTF-8"?>
<svg id="LAYER_1" data-name="LAYER 1" xmlns="http://www.w3.org/2000/svg" viewBox="0 0 242.53 104.07">
  <defs>
    <style>
      .cls-1 {
        fill: #231f20;
      }

      .cls-2 {
        fill: #c59b6c;
      }
    </style>
  </defs>
  <path class="cls-2" d="M9.98,75.45v-34.6s-.23-11.8,2.61-15.27c3.53-4.32,22.99-15.81,22.99-15.81,0,0,19.81,11.6,23.34,15.92,2.84,3.48,2.27,15.16,2.27,15.16v34.6M61.2,75.45v28.43h9.98v-63.02c0-24.54-13.63-28.99-35.59-40.85C13.63,11.86,0,16.31,0,40.85v63.03h9.98v-28.43"/>
  <path class="cls-2" d="M47.39,73.34h-23.67v-23.67h23.67v23.67ZM35.61,44.77l-16.74,16.74,16.74,16.74,16.74-16.74-16.74-16.74Z"/>
  <g>
    <path class="cls-1" d="M105.95,29.41v1.21c0,8.36-5.9,14.79-14.42,14.79s-15.39-7.35-15.39-15.8,7.03-15.96,15.8-15.96c4.73,0,9.41,2.14,12.4,5.9l-2.67,2.55c-2.18-2.99-5.86-4.97-9.58-4.97-6.83,0-12.16,5.54-12.16,12.36,0,6.38,5.25,12.45,11.84,12.45,4.73,0,9.82-4.08,9.98-9.05h-7.88v-3.48h12.08Z"/>
    <path class="cls-1" d="M114.02,37.13l-3.47,7.64h-4.08l14.55-31.76,14.55,31.76h-4.08l-3.47-7.64h-13.98ZM121.02,21.33l-5.41,12.32h10.83l-5.41-12.32Z"/>
    <path class="cls-1" d="M143.07,44.77h-3.8v-26.99h-7.23v-3.48h18.26v3.48h-7.23v26.99Z"/>
    <path class="cls-1" d="M153.29,14.3h16.36v3.48h-12.57v8.53h12.2v3.48h-12.2v11.52h12.57v3.47h-16.36V14.3Z"/>
    <path class="cls-1" d="M215.79,29.53c0,9.05-7.15,15.88-15.96,15.88s-15.96-6.83-15.96-15.88,7.23-15.88,15.96-15.88,15.96,7.15,15.96,15.88ZM211.99,29.53c0-6.71-5.01-12.32-12.16-12.32s-12.16,5.62-12.16,12.32,5.58,12.32,12.16,12.32,12.16-5.37,12.16-12.32Z"/>
    <path class="cls-1" d="M223.22,17.77v8.57h10.59v3.47h-10.59v14.95h-3.8V14.3h14.75v3.48h-10.95Z"/>
    <path class="cls-1" d="M87.44,84.6l8.61-22.47,8.61,22.47,8.53-21.82h4.12l-12.65,31.68-8.61-22.34-8.61,22.34-12.65-31.68h4.12l8.53,21.82Z"/>
    <path class="cls-1" d="M123.36,93.24h-3.8v-30.47h3.8v30.47Z"/>
    <path class="cls-1" d="M142.59,68.56c-1.13-1.9-2.59-2.87-4.89-2.87-2.42,0-5.09,1.66-5.09,4.32,0,2.38,2.34,3.64,4.24,4.36l2.18.85c4.32,1.7,7.56,4.08,7.56,9.17,0,5.54-4.28,9.5-9.74,9.5-4.93,0-8.77-3.64-9.41-8.53l3.84-.81c-.04,3.35,2.63,5.78,5.9,5.78s5.62-2.75,5.62-5.94-2.63-4.69-5.25-5.78l-2.1-.89c-3.48-1.5-6.63-3.47-6.63-7.72,0-4.93,4.36-7.88,8.97-7.88,3.39,0,6.18,1.66,7.84,4.61l-3.03,1.82Z"/>
    <path class="cls-1" d="M150.42,62.78h6.3c9.33,0,17.09,4.93,17.09,15.07s-7.6,15.39-17.21,15.39h-6.18v-30.47ZM154.22,89.77h1.33c7.76,0,14.47-2.91,14.47-11.76s-6.71-11.76-14.47-11.76h-1.33v23.52Z"/>
    <path class="cls-1" d="M207.39,78.01c0,9.05-7.15,15.88-15.96,15.88s-15.96-6.83-15.96-15.88,7.23-15.88,15.96-15.88,15.96,7.15,15.96,15.88ZM203.59,78.01c0-6.71-5.01-12.32-12.16-12.32s-12.16,5.62-12.16,12.32,5.58,12.32,12.16,12.32,12.16-5.37,12.16-12.32Z"/>
    <path class="cls-1" d="M216.23,73.12h-.08l-3.56,20.12h-3.92l6.22-31.76,10.47,24,10.46-24,6.22,31.76h-3.92l-3.56-20.12h-.08l-9.13,20.77-9.13-20.77Z"/>
  </g>
</svg>