<?xml version="1.0" encoding="UTF-8"?>
<svg id="LAYER_1" data-name="LAYER 1" xmlns="http://www.w3.org/2000/svg" viewBox="0 0 295.67 105.06">
  <defs>
    <style>
      .cls-1 {
        fill: #231f20;
      }

      .cls-2 {
        fill: #c59b6c;
      }
    </style>
  </defs>
  <path class="cls-2" d="M234.47,75.45v-34.6s-.23-11.8,2.61-15.27c3.53-4.32,22.99-15.81,22.99-15.81,0,0,19.81,11.6,23.34,15.92,2.84,3.48,2.27,15.16,2.27,15.16v34.6M285.69,75.45v28.43h9.98v-63.02c0-24.54-13.63-28.99-35.59-40.85-21.96,11.86-35.59,16.31-35.59,40.85v63.03h9.98v-28.43"/>
  <path class="cls-2" d="M271.88,73.34h-23.67v-23.67h23.67v23.67ZM260.1,44.77l-16.74,16.74,16.74,16.74,16.74-16.74-16.74-16.74Z"/>
  <g>
    <path class="cls-1" d="M24.54,69.48c-2.63.1-4.75-.74-6.38-2.51-.49-.54-1.08-1.47-1.75-2.78-.46-.92-.94-1.4-1.43-1.43-.66-.05-1.53.41-2.62,1.37-1.09.96-1.84,1.89-2.25,2.8-.71,1.76-1.42,3.51-2.14,5.27-.77,1.64-1.69,2.46-2.76,2.46-1.31,0-2.49-.87-3.52-2.61-1.08-1.86-1.63-4.12-1.63-6.8,0-1.07.16-2.5.47-4.31.11-.67.27-1.01.47-1.01.21,0,.3.39.27,1.16-.02.62-.06,1.32-.12,2.09-.03.59-.05,1.08-.05,1.45,0,1.53.27,3.02.81,4.48.67,1.87,1.58,2.81,2.71,2.81.99,0,1.79-.58,2.41-1.72.57-1.38,1.14-2.75,1.7-4.12.84-1.97,1.85-3.58,3.03-4.83,1.31-1.4,2.57-2.09,3.77-2.09.61,0,1.25.54,1.92,1.63,1.05,1.72,1.64,2.66,1.77,2.81,1.41,1.63,3.19,2.44,5.32,2.44v3.45ZM11.36,49.67c0,.41-.1.9-.3,1.48-.25.69-.53,1.03-.84,1.03-.15,0-.75-.32-1.8-.96-1.13-.67-1.7-1.15-1.7-1.43,0-.26.4-1.27,1.21-3.03.48.48,1.26,1.03,2.34,1.68.72.41,1.08.82,1.08,1.23ZM16.31,48.24c0,.25-.11.69-.32,1.33-.28.77-.57,1.32-.86,1.65-.66-.34-1.31-.7-1.95-1.06-.9-.51-1.35-.9-1.35-1.16,0-.1.17-.57.52-1.42.34-.85.59-1.27.74-1.27,2.15.92,3.23,1.56,3.23,1.92Z"/>
    <path class="cls-1" d="M44.79,69.48c-1.77,0-4-.99-6.68-2.96-.13.69-.39,1.39-.79,2.09-.46.82-.9,1.26-1.33,1.31-.39.05-1.17-.25-2.32-.91-1.48-.84-2.73-1.92-3.77-3.25-.56.77-1.31,1.54-2.24,2.29-1.22.95-2.26,1.43-3.13,1.43v-3.45c1.38,0,2.49-.21,3.34-.64s1.75-1.26,2.7-2.49c.2.1.39.04.57-.17,1.25-1.54,2.41-2.32,3.5-2.32.92,0,1.63.26,2.14.78.51.52,1.02,1.04,1.53,1.56,2.78,2.18,4.94,3.28,6.48,3.28v3.45ZM36,66.23c-.08-.85-.4-1.55-.96-2.09-.48-.48-.99-.71-1.55-.71-.28.05-.7.21-1.26.47,1.02.84,2.27,1.62,3.77,2.34Z"/>
    <path class="cls-1" d="M95.72,69.48c-.59,0-1.18-.18-1.77-.54-.8-.51-1.25-1.22-1.33-2.14s-.03-1.7.15-2.34c-.59.26-1.21.4-1.85.42-.25,0-5.43.78-15.55,2.34-9.87,1.51-17.58,2.27-23.14,2.27h-7.44v-3.45h7.47c5.31,0,12.93-.65,22.87-1.95,10.2-1.35,15.33-2.02,15.4-2.02.92-.02,1.66-.07,2.22-.17-1.54-3.12-5.07-4.68-10.57-4.68-1.66,0-5.94.35-12.84,1.06-6.9.71-11.59,1.06-14.07,1.06-5.98,0-8.97-1.05-8.97-3.15,0-.21.03-.43.1-.64.61-2.18,1.56-4.04,2.86-5.57,1.04-1.22,2.68-2.62,4.93-4.21,5.24-3.71,9.11-5.58,11.6-5.59,1.38-.02,2.07.44,2.07,1.36,0,.48-.29,1.3-.86,2.46-.26.53-.44.79-.52.79-.18,0-.36-.29-.54-.86-.2-.64-.72-.94-1.58-.91-.48.07-1.63.53-3.45,1.4-2.05.99-3.78,1.96-5.17,2.93-4.9,3.38-7.36,5.69-7.39,6.92-.02.53.7.99,2.14,1.4,1.76.48,4.21.71,7.37.69,1.41-.02,5.38-.35,11.9-1.01,6.46-.66,10.59-.99,12.42-.99,3.83,0,6.57.31,8.23.94,1.97.74,3.5,2.22,4.58,4.44.08.18.12.4.12.67,0,1.15-.53,2.3-1.58,3.45.03.08.05.32.05.7s.22.76.67,1.12c.31.25.8.37,1.48.37v3.45Z"/>
    <path class="cls-1" d="M122.23,58.62c.23.02.35.19.35.52,0,.61-.29,1.52-.86,2.74-2.71.15-4.42.27-5.12.37-2.15.3-4.28.9-6.38,1.82-8.41,3.66-13.24,5.47-14.49,5.42v-3.45c1.41,0,3.97-.73,7.66-2.19,4.09-1.63,6.36-2.48,6.8-2.56-1.22-.15-3.62-.43-7.22-.86-.97-.15-1.93-.29-2.88-.42-1.35-.2-2.65-.29-3.92-.27-.05.02-.09.02-.12.02-.15,0-.22-.13-.22-.39,0-.44.18-1.07.53-1.88.35-.81.62-1.22.8-1.22,1.17-.23,2.6-.6,4.29-1.11,1.92-.58,3.1-1.04,3.55-1.4.11-.18.17-.54.17-1.08,0-1.56-.53-4.85-1.6-9.86-.71-3.25-1.41-6.5-2.12-9.76-.15.02-.46-.23-.94-.74-.05-.08-.07-.19-.07-.32,0,.12.21-.64.62-2.27.02-.08.04-.14.07-.17.11-.2.31-.12.59.22.21.28.91.92,2.09,1.92.94.8,1.4,1.34,1.4,1.6,0,.13-.07.22-.22.27-.33-.05-.88-.18-1.65-.39.59,2.12,1.26,5.12,2.02,8.99.94,4.8,1.37,8.02,1.31,9.68-.08,2.12-.78,3.81-2.09,5.08.66.05,2.82.32,6.48.81,3.19.44,6.92.74,11.19.89Z"/>
    <path class="cls-1" d="M131.23,61.5c.07.82.1,1.62.1,2.39,0,2.73-.32,4.69-.96,5.89-.25.46-.43.69-.54.69-.18,0-.21-.53-.07-1.58.16-1.33.17-2.72.02-4.16-.59-4.7-1.41-11.76-2.46-21.19-.13-1.72-.35-4.21-.67-7.47-.05-.18-.27-.67-.67-1.45-.1-.18.16-1.22.79-3.13.03-.11.08-.17.15-.17.16,0,.39.35.69,1.06.51,1.08,1.01,2.17,1.5,3.25.79,1.68,1.18,2.72,1.18,3.13,0,.13-.05.2-.15.2-.07,0-.17-.05-.32-.15-.41-.31-.85-.71-1.31-1.18-.03.46.3,3.48,1.01,9.07.85,6.65,1.42,11.59,1.7,14.81Z"/>
    <path class="cls-1" d="M163.85,69.48c-2.63.1-4.75-.74-6.38-2.51-.49-.54-1.08-1.47-1.75-2.78-.46-.92-.94-1.4-1.43-1.43-.66-.05-1.53.41-2.62,1.37-1.09.96-1.84,1.89-2.25,2.8-.71,1.76-1.42,3.51-2.14,5.27-.77,1.64-1.69,2.46-2.76,2.46-1.31,0-2.49-.87-3.52-2.61-1.08-1.86-1.63-4.12-1.63-6.8,0-1.07.16-2.5.47-4.31.11-.67.27-1.01.47-1.01.21,0,.3.39.27,1.16-.02.62-.06,1.32-.12,2.09-.03.59-.05,1.08-.05,1.45,0,1.53.27,3.02.81,4.48.67,1.87,1.58,2.81,2.71,2.81.99,0,1.79-.58,2.41-1.72.57-1.38,1.14-2.75,1.7-4.12.84-1.97,1.85-3.58,3.03-4.83,1.31-1.4,2.57-2.09,3.77-2.09.61,0,1.25.54,1.92,1.63,1.05,1.72,1.64,2.66,1.77,2.81,1.41,1.63,3.19,2.44,5.32,2.44v3.45ZM150.67,49.67c0,.41-.1.9-.3,1.48-.25.69-.53,1.03-.84,1.03-.15,0-.75-.32-1.8-.96-1.13-.67-1.7-1.15-1.7-1.43,0-.26.4-1.27,1.21-3.03.48.48,1.26,1.03,2.34,1.68.72.41,1.08.82,1.08,1.23ZM155.62,48.24c0,.25-.11.69-.32,1.33-.28.77-.57,1.32-.86,1.65-.66-.34-1.31-.7-1.95-1.06-.9-.51-1.35-.9-1.35-1.16,0-.1.17-.57.52-1.42.34-.85.59-1.27.74-1.27,2.15.92,3.23,1.56,3.23,1.92Z"/>
    <path class="cls-1" d="M171.54,61.45c.23,1.72-.35,3.39-1.73,5-.56.66-1.39,1.3-2.49,1.92-1.31.74-2.47,1.11-3.47,1.11v-3.45c1.48,0,3.01-.44,4.61-1.31,1.43-.79,2.08-1.35,1.95-1.68-.23-.58-1.12-1.77-2.69-3.57-1.49-1.73-2.53-3.45-3.1-5.18-.34,0-.51-.09-.49-.27.07-.61.16-1.45.3-2.51.1-.51.27-.65.52-.42.82.58,1.82,1.31,3.01,2.19.41.34.62.62.62.81,0,.17-.14.25-.42.25-.46,0-.86-.03-1.21-.1.15.44.94,1.5,2.39,3.15,1.31,1.53,2.05,2.88,2.22,4.04ZM170.82,76.28c0,1.08-.34,2.06-1.01,2.93-.95-.49-1.91-.99-2.88-1.5-.48-.26-.71-.54-.71-.84,0,.12.3-.91.89-3.08.43.36,1.24.83,2.44,1.4.85.39,1.28.76,1.28,1.08Z"/>
    <path class="cls-1" d="M181.07,61.5c.07.82.1,1.62.1,2.39,0,2.73-.32,4.69-.96,5.89-.25.46-.43.69-.54.69-.18,0-.21-.53-.07-1.58.16-1.33.17-2.72.02-4.16-.59-4.7-1.41-11.76-2.46-21.19-.13-1.72-.35-4.21-.67-7.47-.05-.18-.27-.67-.67-1.45-.1-.18.16-1.22.79-3.13.03-.11.08-.17.15-.17.16,0,.39.35.69,1.06.51,1.08,1.01,2.17,1.5,3.25.79,1.68,1.18,2.72,1.18,3.13,0,.13-.05.2-.15.2-.07,0-.17-.05-.32-.15-.41-.31-.85-.71-1.31-1.18-.03.46.3,3.48,1.01,9.07.85,6.65,1.42,11.59,1.7,14.81Z"/>
    <path class="cls-1" d="M200.95,69.48c-.36.03-.75.05-1.16.05-.03.18-.11.56-.22,1.13-.33,1.76-1.04,3.24-2.14,4.46-2.22,2.02-4.8,4-7.76,5.94-2.66,1.72-4.86,2.94-6.6,3.65-3.6.53-6.82,1.31-9.66,2.37-.59.21-1.07.32-1.43.32-.23,0-.35-.05-.35-.15,0-.21.45-.52,1.36-.91,2.76-1.2,5.63-2.55,8.6-4.07,3.65-1.84,7.43-4.11,11.36-6.82,3.83-2.65,5.76-4.27,5.79-4.88-.08-.39-.2-.74-.35-1.04-3.12,0-5.07-.16-5.84-.49-.43-.18-.82-.5-1.18-.96-.43-.53-.64-1.04-.64-1.53.02-1.38.45-2.68,1.31-3.91s1.74-1.84,2.66-1.84c.66,0,1.51.54,2.56,1.63,1.1,1.13,1.85,2.34,2.24,3.62.54,0,1.03,0,1.45-.02v3.45ZM196.08,66.01c-.15-.2-.33-.45-.54-.76-.33-.49-.77-.75-1.33-.79-.39-.02-.71.07-.96.26-.25.19-.36.47-.35.85.26.23,1.32.38,3.18.44Z"/>
    <path class="cls-1" d="M208.64,61.45c.23,1.72-.35,3.39-1.73,5-.56.66-1.39,1.3-2.49,1.92-1.31.74-2.47,1.11-3.47,1.11v-3.45c1.48,0,3.01-.44,4.61-1.31,1.43-.79,2.08-1.35,1.95-1.68-.23-.58-1.12-1.77-2.69-3.57-1.49-1.73-2.53-3.45-3.1-5.18-.34,0-.51-.09-.49-.27.07-.61.16-1.45.3-2.51.1-.51.27-.65.52-.42.82.58,1.82,1.31,3.01,2.19.41.34.62.62.62.81,0,.17-.14.25-.42.25-.46,0-.86-.03-1.21-.1.15.44.94,1.5,2.39,3.15,1.31,1.53,2.05,2.88,2.22,4.04ZM207.93,76.28c0,1.08-.34,2.06-1.01,2.93-.95-.49-1.91-.99-2.88-1.5-.48-.26-.71-.54-.71-.84,0,.12.3-.91.89-3.08.43.36,1.24.83,2.44,1.4.85.39,1.28.76,1.28,1.08Z"/>
  </g>
</svg>